# xmcd
# 
# Track frame offsets:
#     150
#     14297
#     27543
#     45002
#     59736
#     71815
#     84528
#     97487
#     108951
#     122272
#     146383
# 
# Disc length: 1971
# 
# Revision: 2
# Processed by: cddbd v1.5.2PL0 Copyright (c) Steve Scherf et al.
# Submitted via: fre:ac v1.0.27
# 
DISCID=9307b10b
DTITLE=Further Seems Forever - Hide Nothing
DYEAR=2004
DGENRE=Hard Rock
TTITLE0=Light Up Ahead
TTITLE1=Hide Nothing
TTITLE2=Already Gone
TTITLE3=Like Someone You Know
TTITLE4=Make It a Part
TTITLE5=All Rise
TTITLE6=Call On The Life
TTITLE7=Lead The Way
TTITLE8=Bleed
TTITLE9=For All We Know
TTITLE10=CD-EXTRA
EXTD=YEAR: 2004
EXTT0=
EXTT1=
EXTT2=
EXTT3=
EXTT4=
EXTT5=
EXTT6=
EXTT7=
EXTT8=
EXTT9=
EXTT10=
PLAYORDER=
